<svg width="31" height="31" fill="currentColor" xmlns="http://www.w3.org/2000/svg"><path d="M15.35 10.535a4.515 4.515 0 100 9.03 4.515 4.515 0 000-9.03zm0-3.01a7.525 7.525 0 110 15.05 7.525 7.525 0 010-15.05zm9.782-.376a1.881 1.881 0 11-3.762 0 1.881 1.881 0 013.762 0zM15.35 3.01c-3.724 0-4.332.01-6.064.087-1.18.056-1.971.214-2.706.5a4.344 4.344 0 00-1.625 1.058 4.35 4.35 0 00-1.06 1.625c-.286.738-.444 1.528-.498 2.706-.078 1.662-.087 2.243-.087 6.064 0 3.723.01 4.331.087 6.064.056 1.178.214 1.971.498 2.704a4.39 4.39 0 001.057 1.625 4.35 4.35 0 001.625 1.058c.744.288 1.535.447 2.71.502 1.66.078 2.242.087 6.063.087 3.723 0 4.331-.01 6.063-.087 1.177-.056 1.97-.214 2.705-.498a4.396 4.396 0 001.625-1.057c.508-.507.81-.978 1.06-1.625.286-.742.445-1.535.5-2.71.078-1.66.087-2.242.087-6.063 0-3.723-.01-4.331-.088-6.064-.055-1.177-.213-1.971-.5-2.706a4.382 4.382 0 00-1.057-1.625 4.34 4.34 0 00-1.626-1.06c-.737-.286-1.529-.444-2.706-.498-1.661-.078-2.242-.087-6.063-.087zm0-3.01c4.089 0 4.6.015 6.203.09 1.603.076 2.694.327 3.655.7.993.382 1.83.9 2.666 1.735a7.386 7.386 0 011.736 2.667c.371.959.624 2.052.7 3.654.07 1.605.09 2.115.09 6.204 0 4.09-.015 4.6-.09 6.204-.076 1.602-.329 2.694-.7 3.654a7.35 7.35 0 01-1.736 2.667 7.398 7.398 0 01-2.666 1.735c-.96.372-2.052.625-3.655.7-1.604.07-2.114.09-6.203.09-4.09 0-4.6-.015-6.204-.09-1.603-.076-2.694-.328-3.654-.7a7.36 7.36 0 01-2.667-1.735 7.38 7.38 0 01-1.735-2.667c-.373-.959-.625-2.052-.7-3.654C.32 19.649.3 19.139.3 15.05c0-4.09.015-4.6.09-6.204s.327-2.694.7-3.654a7.344 7.344 0 011.735-2.667A7.37 7.37 0 015.492.79c.96-.373 2.05-.624 3.654-.7C10.75.02 11.261 0 15.35 0z" fill="currentColor"/></svg>