<svg id="delete-icon" width="21" height="17" fill="currentColor" xmlns="http://www.w3.org/2000/svg"><path d="M15.884 3.4h4.982v1.7h-1.992v11.05a.792.792 0 01-.292.601 1.09 1.09 0 01-.705.249H3.927a1.09 1.09 0 01-.704-.249.792.792 0 01-.292-.601V5.1H.938V3.4H5.92V.85c0-.225.105-.442.292-.601C6.4.089 6.652 0 6.917 0h7.97c.265 0 .519.09.705.249.187.16.292.376.292.601V3.4zm.997 1.7H4.924v10.2h11.957V5.1zm-4.57 5.1l1.762 1.503-1.409 1.202-1.762-1.503-1.761 1.503-1.41-1.202L9.494 10.2 7.732 8.697 9.14 7.495l1.761 1.503 1.762-1.503 1.409 1.202L12.31 10.2zM7.913 1.7v1.7h5.979V1.7H7.913z" fill="currentColor"/></svg>