<svg width="25" height="32" fill="currentColor" xmlns="http://www.w3.org/2000/svg"><path d="M18.375 11.227c-.654-.052-1.357.106-2.434.521.092-.035-1.027.405-1.34.517-.694.245-1.266.379-1.906.379-.634 0-1.218-.129-1.89-.357a15.262 15.262 0 01-.7-.26c-.113-.044-.528-.212-.62-.247-.896-.355-1.401-.49-1.82-.478-1.595.021-3.105.95-3.98 2.491-1.789 3.137-.8 8.805 1.815 12.624 1.392 2.018 2.153 2.74 2.46 2.73.308-.014.533-.08 1.084-.315l.231-.099c1.391-.6 2.367-.864 3.835-.864 1.413 0 2.357.26 3.692.842l.233.1c.55.238.75.291 1.096.283.495-.007 1.105-.583 2.46-2.592.37-.546.699-1.122.983-1.705a10.17 10.17 0 01-.543-.485c-1.784-1.717-2.887-4.032-2.917-6.892a9.322 9.322 0 011.951-5.844 5.657 5.657 0 00-1.69-.35zm.215-2.788c.98.067 3.786.37 5.613 3.07-.15.084-3.355 1.963-3.321 5.888.05 4.696 4.068 6.256 4.118 6.273-.033.117-.648 2.231-2.126 4.412-1.278 1.895-2.607 3.774-4.7 3.807-2.058.05-2.723-1.224-5.064-1.224-2.358 0-3.089 1.19-5.032 1.275-2.026.067-3.554-2.047-4.849-3.925-2.64-3.858-4.65-10.87-1.943-15.617C2.631 10.033 5.023 8.54 7.63 8.506c1.976-.05 3.852 1.342 5.065 1.342 1.195 0 3.338-1.61 5.895-1.409zm-1.578-2.55c-1.08 1.309-2.84 2.332-4.55 2.198-.232-1.778.631-3.64 1.628-4.797 1.112-1.31 2.972-2.282 4.517-2.35.199 1.812-.515 3.64-1.595 4.949z" fill="currentColor"/></svg>