<svg id="shopping-cart" width="24" height="25" fill="none" xmlns="http://www.w3.org/2000/svg"><path d="M4.086 6.046l-3.6-3.54L2.056.96l3.6 3.542h16.92a1.125 1.125 0 01.89.44 1.083 1.083 0 01.173.965l-2.664 8.737a1.092 1.092 0 01-.4.563c-.192.14-.425.216-.664.216H6.306v2.184h12.211v2.184H5.196a1.12 1.12 0 01-.785-.32 1.083 1.083 0 01-.325-.772V6.046zm2.22.64v6.553h12.78l1.998-6.553H6.306zM5.751 24.16c-.442 0-.865-.173-1.177-.48a1.625 1.625 0 01-.488-1.158c0-.435.175-.851.488-1.159a1.68 1.68 0 011.177-.48c.442 0 .865.173 1.177.48.313.308.488.724.488 1.159 0 .434-.175.85-.488 1.158-.312.307-.735.48-1.177.48zm13.321 0a1.68 1.68 0 01-1.177-.48 1.625 1.625 0 01-.488-1.158c0-.435.175-.851.488-1.159a1.682 1.682 0 012.355 0 1.625 1.625 0 010 2.317c-.313.307-.736.48-1.178.48z" fill="#838383"/></svg>