<svg width="55" height="39" fill="none" xmlns="http://www.w3.org/2000/svg"><g clip-path="url(#clip0_6_16)"><path d="M50.529 39H4.47a1.123 1.123 0 01-1.117-1.127v-2.48h48.292v2.48c0 .622-.5 1.127-1.117 1.127z" fill="#6DC54A"/><path d="M3.354 35.393h48.292v1.803H3.354v-1.803z" fill="#5DB33A"/><path d="M52.317 35.393H2.683a1.123 1.123 0 01-1.118-1.127v-2.48h51.87v2.48c0 .622-.5 1.127-1.118 1.127z" fill="#6DC54A"/><path d="M1.565 31.786h51.87v1.803H1.565v-1.803z" fill="#5DB33A"/><path d="M53.882 31.786H1.118A1.123 1.123 0 010 30.66V1.127C0 .505.5 0 1.118 0h52.764C54.5 0 55 .505 55 1.127V30.66c0 .622-.5 1.127-1.118 1.127z" fill="#ABDE97"/><path d="M52.988 0v28.517c0 .623-.5 1.127-1.118 1.127H0v1.015c0 .622.5 1.127 1.118 1.127h52.764c.617 0 1.118-.505 1.118-1.127V1.127C55 .505 54.5 0 53.882 0h-.894z" fill="#82CD64"/><path d="M8.748 27.954c-.503 0-.936-.34-1.078-.828-.42-1.448-1.582-2.686-3.033-3.093a1.135 1.135 0 01-.836-1.09V8.855c0-.52.356-.966.856-1.095 1.494-.386 2.556-1.568 2.998-3.115.139-.487.59-.814 1.092-.814h37.506c.501 0 .953.327 1.092.814.442 1.547 1.503 2.729 2.998 3.115.5.13.856.574.856 1.095v14.086c0 .514-.346.953-.836 1.091-1.451.407-2.614 1.646-3.034 3.093a1.128 1.128 0 01-1.077.828H8.748z" fill="#6DC54A"/><path d="M47.33 27.126c.421-1.454 1.593-2.698 3.054-3.1a1.12 1.12 0 00.815-1.084V8.856c0-.52-.356-.966-.856-1.095-1.495-.386-2.556-1.568-2.998-3.115a1.133 1.133 0 00-1.093-.814h-.9v.524c0 2.289 1.321 4.398 3.412 5.291l.047.02a.246.246 0 01.152.226v12c0 .1-.06.188-.152.226a6.322 6.322 0 00-3.399 3.427.244.244 0 01-.224.154H6.966c.314.431.557.916.705 1.428.14.486.575.826 1.077.826h37.504c.503 0 .936-.341 1.077-.828z" fill="#5DB33A"/><path d="M35.102 15.047h-1.23c-.413-3.175-3.112-5.635-6.372-5.635s-5.96 2.46-6.372 5.635h-1.23a.842.842 0 00-.838.846c0 .467.375.845.838.845h1.23c.413 3.176 3.112 5.636 6.372 5.636s5.959-2.46 6.371-5.636h1.23a.842.842 0 00.839-.845.842.842 0 00-.838-.846zM27.5 20.684c-2.62 0-4.751-2.15-4.751-4.791 0-2.642 2.131-4.79 4.75-4.79 2.62 0 4.752 2.149 4.752 4.79 0 2.642-2.131 4.79-4.751 4.79zm15.65-5.637h-4.248a.842.842 0 00-.838.846c0 .467.376.845.838.845h4.248a.842.842 0 00.839-.845.842.842 0 00-.838-.846zm-27.052 0H11.85a.842.842 0 00-.839.846c0 .467.375.845.839.845h4.248a.842.842 0 00.838-.845.842.842 0 00-.838-.846z" fill="#5DB33A"/></g><defs><clipPath id="clip0_6_16"><path fill="#fff" d="M0 0h55v39H0z"/></clipPath></defs></svg>