<svg id="lang" width="17" height="17" fill="currentColor" xmlns="http://www.w3.org/2000/svg"><path d="M8.492 0C3.799 0 0 3.808 0 8.5S3.8 17 8.492 17C13.192 17 17 13.192 17 8.5S13.192 0 8.492 0zm5.89 5.1h-2.508a13.302 13.302 0 00-1.173-3.026A6.825 6.825 0 0114.383 5.1zM8.5 1.734A11.974 11.974 0 0110.123 5.1H6.877A11.974 11.974 0 018.5 1.734zM1.921 10.2A7.006 7.006 0 011.7 8.5c0-.587.085-1.156.221-1.7h2.873a14.038 14.038 0 00-.119 1.7c0 .578.051 1.139.119 1.7H1.921zm.697 1.7h2.507a13.302 13.302 0 001.173 3.026 6.789 6.789 0 01-3.68-3.026zm2.507-6.8H2.618a6.789 6.789 0 013.68-3.026c-.51.944-.9 1.963-1.173 3.026zM8.5 15.266A11.974 11.974 0 016.877 11.9h3.247A11.974 11.974 0 018.5 15.266zm1.989-5.066H6.511a12.506 12.506 0 01-.136-1.7c0-.578.06-1.147.136-1.7h3.978c.076.553.136 1.122.136 1.7 0 .578-.06 1.139-.136 1.7zm.212 4.726c.51-.944.901-1.963 1.173-3.026h2.508a6.825 6.825 0 01-3.68 3.026zm1.505-4.726c.068-.561.119-1.122.119-1.7 0-.578-.051-1.139-.119-1.7h2.873c.136.544.221 1.114.221 1.7 0 .586-.085 1.156-.221 1.7h-2.873z" fill="currentColor"/></svg>