<svg id="phone" width="15" height="15" fill="currentColor" xmlns="http://www.w3.org/2000/svg"><path d="M5.305 6.402a8.797 8.797 0 003.293 3.293l.737-1.032a.833.833 0 011.078-.246 9.518 9.518 0 003.82 1.136.833.833 0 01.767.831v3.718a.834.834 0 01-.748.83c-.442.045-.887.068-1.335.068C5.783 15 0 9.217 0 2.083 0 1.635.022 1.19.068.748A.833.833 0 01.898 0h3.718a.833.833 0 01.83.767 9.518 9.518 0 001.137 3.82.833.833 0 01-.246 1.078l-1.032.737zm-2.102-.548l1.584-1.13c-.45-.97-.758-2-.914-3.057H1.675a11.5 11.5 0 00-.008.416c0 6.214 5.036 11.25 11.25 11.25.139 0 .278-.002.416-.008v-2.197a11.175 11.175 0 01-3.056-.915l-1.131 1.584a10.374 10.374 0 01-1.324-.625l-.048-.028a10.464 10.464 0 01-3.918-3.918l-.028-.048a10.37 10.37 0 01-.625-1.324z" fill="currentColor"/></svg>